<mxfile host="app.diagrams.net" modified="2024-03-25T22:55:11.441Z" agent="Mozilla/5.0 (Windows NT 10.0; Win64; x64) AppleWebKit/537.36 (KHTML, like Gecko) Chrome/122.0.0.0 Safari/537.36" etag="E6kkE_j502eHOdUpc6Sy" version="24.1.0" type="device" pages="2">
  <diagram name="Steps-Projects" id="QElzTiVKcsg34unoZ7Tb">
    <mxGraphModel dx="1621" dy="420" grid="1" gridSize="10" guides="1" tooltips="1" connect="1" arrows="1" fold="1" page="1" pageScale="1" pageWidth="827" pageHeight="1169" math="0" shadow="0">
      <root>
        <mxCell id="0" />
        <mxCell id="1" parent="0" />
        <mxCell id="XQLQP1dJ-THWz0YZHnXl-1" value="1. Modèle de données&amp;nbsp;" style="text;html=1;align=center;verticalAlign=middle;whiteSpace=wrap;rounded=0;fontStyle=5" parent="1" vertex="1">
          <mxGeometry x="120" y="250" width="90" height="50" as="geometry" />
        </mxCell>
        <mxCell id="XQLQP1dJ-THWz0YZHnXl-3" value="Events" style="rounded=0;whiteSpace=wrap;html=1;" parent="1" vertex="1">
          <mxGeometry x="-210" y="320" width="120" height="60" as="geometry" />
        </mxCell>
        <mxCell id="XQLQP1dJ-THWz0YZHnXl-4" value="Clients" style="rounded=0;whiteSpace=wrap;html=1;" parent="1" vertex="1">
          <mxGeometry x="90" y="410" width="120" height="60" as="geometry" />
        </mxCell>
        <mxCell id="XQLQP1dJ-THWz0YZHnXl-5" value="Reservations" style="rounded=0;whiteSpace=wrap;html=1;" parent="1" vertex="1">
          <mxGeometry x="230" y="320" width="120" height="60" as="geometry" />
        </mxCell>
        <mxCell id="XQLQP1dJ-THWz0YZHnXl-6" value="2. Git Repositories" style="text;html=1;align=center;verticalAlign=middle;whiteSpace=wrap;rounded=0;fontStyle=5" parent="1" vertex="1">
          <mxGeometry x="560" y="250" width="60" height="30" as="geometry" />
        </mxCell>
        <mxCell id="XQLQP1dJ-THWz0YZHnXl-7" value="Code" style="rounded=0;whiteSpace=wrap;html=1;" parent="1" vertex="1">
          <mxGeometry x="540" y="300" width="120" height="60" as="geometry" />
        </mxCell>
        <mxCell id="XQLQP1dJ-THWz0YZHnXl-8" value="Diagrames" style="rounded=0;whiteSpace=wrap;html=1;" parent="1" vertex="1">
          <mxGeometry x="540" y="380" width="120" height="60" as="geometry" />
        </mxCell>
        <mxCell id="XQLQP1dJ-THWz0YZHnXl-9" value="Diagrame de classe" style="rounded=1;whiteSpace=wrap;html=1;" parent="1" vertex="1">
          <mxGeometry x="470" y="470" width="120" height="60" as="geometry" />
        </mxCell>
        <mxCell id="XQLQP1dJ-THWz0YZHnXl-10" value="Séquences" style="rounded=1;whiteSpace=wrap;html=1;" parent="1" vertex="1">
          <mxGeometry x="620" y="470" width="120" height="60" as="geometry" />
        </mxCell>
        <mxCell id="XQLQP1dJ-THWz0YZHnXl-11" value="Etat" style="rounded=1;whiteSpace=wrap;html=1;" parent="1" vertex="1">
          <mxGeometry x="570" y="560" width="120" height="60" as="geometry" />
        </mxCell>
        <mxCell id="XQLQP1dJ-THWz0YZHnXl-12" value="3. Architecture" style="text;html=1;align=center;verticalAlign=middle;whiteSpace=wrap;rounded=0;fontStyle=5" parent="1" vertex="1">
          <mxGeometry x="100" y="585" width="110" height="30" as="geometry" />
        </mxCell>
        <mxCell id="XQLQP1dJ-THWz0YZHnXl-13" value="Microservices" style="rounded=0;whiteSpace=wrap;html=1;" parent="1" vertex="1">
          <mxGeometry x="80" y="650" width="120" height="60" as="geometry" />
        </mxCell>
        <mxCell id="XQLQP1dJ-THWz0YZHnXl-14" value="Découpage" style="rounded=0;whiteSpace=wrap;html=1;" parent="1" vertex="1">
          <mxGeometry x="180" y="710" width="120" height="60" as="geometry" />
        </mxCell>
        <mxCell id="XQLQP1dJ-THWz0YZHnXl-15" value="Base de données" style="rounded=0;whiteSpace=wrap;html=1;" parent="1" vertex="1">
          <mxGeometry x="294" y="770" width="120" height="60" as="geometry" />
        </mxCell>
        <mxCell id="XQLQP1dJ-THWz0YZHnXl-16" value="API&amp;nbsp;&lt;div&gt;GET /events&lt;/div&gt;" style="rounded=0;whiteSpace=wrap;html=1;" parent="1" vertex="1">
          <mxGeometry x="414" y="830" width="120" height="60" as="geometry" />
        </mxCell>
        <mxCell id="XQLQP1dJ-THWz0YZHnXl-17" value="Tickets" style="rounded=0;whiteSpace=wrap;html=1;" parent="1" vertex="1">
          <mxGeometry x="230" y="410" width="120" height="60" as="geometry" />
        </mxCell>
        <mxCell id="XQLQP1dJ-THWz0YZHnXl-18" value="Notifications" style="rounded=0;whiteSpace=wrap;html=1;" parent="1" vertex="1">
          <mxGeometry x="95" y="500" width="120" height="60" as="geometry" />
        </mxCell>
        <mxCell id="XQLQP1dJ-THWz0YZHnXl-19" value="Panier" style="rounded=0;whiteSpace=wrap;html=1;" parent="1" vertex="1">
          <mxGeometry x="230" y="500" width="120" height="60" as="geometry" />
        </mxCell>
        <mxCell id="XQLQP1dJ-THWz0YZHnXl-20" value="4. CI/CD" style="text;html=1;align=center;verticalAlign=middle;whiteSpace=wrap;rounded=0;fontStyle=5" parent="1" vertex="1">
          <mxGeometry x="60" y="920" width="110" height="30" as="geometry" />
        </mxCell>
        <mxCell id="XQLQP1dJ-THWz0YZHnXl-21" value="Build" style="rounded=0;whiteSpace=wrap;html=1;" parent="1" vertex="1">
          <mxGeometry x="70" y="960" width="120" height="60" as="geometry" />
        </mxCell>
        <mxCell id="XQLQP1dJ-THWz0YZHnXl-22" value="Déploy (AWS)" style="rounded=0;whiteSpace=wrap;html=1;" parent="1" vertex="1">
          <mxGeometry x="170" y="1020" width="120" height="60" as="geometry" />
        </mxCell>
        <mxCell id="XQLQP1dJ-THWz0YZHnXl-23" value="EC2" style="rounded=0;whiteSpace=wrap;html=1;" parent="1" vertex="1">
          <mxGeometry x="95" y="1109" width="120" height="60" as="geometry" />
        </mxCell>
        <mxCell id="XQLQP1dJ-THWz0YZHnXl-24" value="ECS" style="rounded=0;whiteSpace=wrap;html=1;" parent="1" vertex="1">
          <mxGeometry x="250" y="1109" width="120" height="60" as="geometry" />
        </mxCell>
        <mxCell id="XQLQP1dJ-THWz0YZHnXl-25" value="Steps" style="text;html=1;align=center;verticalAlign=middle;whiteSpace=wrap;rounded=0;fontStyle=5" parent="1" vertex="1">
          <mxGeometry x="510" y="930" width="110" height="30" as="geometry" />
        </mxCell>
        <mxCell id="XQLQP1dJ-THWz0YZHnXl-26" value="Authentification" style="rounded=0;whiteSpace=wrap;html=1;" parent="1" vertex="1">
          <mxGeometry x="-50" y="320" width="120" height="60" as="geometry" />
        </mxCell>
        <mxCell id="XQLQP1dJ-THWz0YZHnXl-27" value="- Créer le git repos&lt;div&gt;&lt;br&gt;&lt;/div&gt;" style="text;html=1;align=center;verticalAlign=middle;whiteSpace=wrap;rounded=0;" parent="1" vertex="1">
          <mxGeometry x="520" y="975" width="130" height="30" as="geometry" />
        </mxCell>
        <mxCell id="XQLQP1dJ-THWz0YZHnXl-28" value="- Découpage Authentification" style="text;html=1;align=center;verticalAlign=middle;whiteSpace=wrap;rounded=0;" parent="1" vertex="1">
          <mxGeometry x="520" y="1005" width="130" height="30" as="geometry" />
        </mxCell>
        <mxCell id="XQLQP1dJ-THWz0YZHnXl-29" value="- CI/CD" style="text;html=1;align=center;verticalAlign=middle;whiteSpace=wrap;rounded=0;" parent="1" vertex="1">
          <mxGeometry x="510" y="1060" width="130" height="30" as="geometry" />
        </mxCell>
        <mxCell id="XQLQP1dJ-THWz0YZHnXl-30" value="list events&lt;div&gt;events by name&lt;/div&gt;&lt;div&gt;add event&lt;/div&gt;&lt;div&gt;delete events&lt;/div&gt;&lt;div&gt;update events&lt;/div&gt;&lt;div&gt;&lt;br&gt;&lt;/div&gt;" style="text;html=1;align=center;verticalAlign=middle;whiteSpace=wrap;rounded=0;" parent="1" vertex="1">
          <mxGeometry x="-194" y="443" width="60" height="30" as="geometry" />
        </mxCell>
      </root>
    </mxGraphModel>
  </diagram>
  <diagram id="wC3wImNkuoKl98kL2J80" name="JO-24-DC">
    <mxGraphModel dx="794" dy="420" grid="1" gridSize="10" guides="1" tooltips="1" connect="1" arrows="1" fold="1" page="1" pageScale="1" pageWidth="827" pageHeight="1169" math="0" shadow="0">
      <root>
        <mxCell id="0" />
        <mxCell id="1" parent="0" />
        <mxCell id="OKO-UqqHdCmLFslAwH-V-1" value="&lt;p style=&quot;margin:0px;margin-top:4px;text-align:center;&quot;&gt;&lt;b&gt;User&lt;/b&gt;&lt;/p&gt;&lt;hr size=&quot;1&quot; style=&quot;border-style:solid;&quot;&gt;&lt;p style=&quot;margin:0px;margin-left:4px;&quot;&gt;+ profil: Type&lt;/p&gt;&lt;hr size=&quot;1&quot; style=&quot;border-style:solid;&quot;&gt;&lt;p style=&quot;margin:0px;margin-left:4px;&quot;&gt;+ method(): Type&lt;/p&gt;" style="verticalAlign=top;align=left;overflow=fill;html=1;whiteSpace=wrap;" parent="1" vertex="1">
          <mxGeometry x="330" y="160" width="160" height="90" as="geometry" />
        </mxCell>
        <mxCell id="OKO-UqqHdCmLFslAwH-V-2" value="&lt;p style=&quot;margin:0px;margin-top:4px;text-align:center;&quot;&gt;&lt;b&gt;Visiteur&lt;/b&gt;&lt;/p&gt;&lt;hr size=&quot;1&quot; style=&quot;border-style:solid;&quot;&gt;&lt;p style=&quot;margin:0px;margin-left:4px;&quot;&gt;+ field: Type&lt;/p&gt;&lt;hr size=&quot;1&quot; style=&quot;border-style:solid;&quot;&gt;&lt;p style=&quot;margin:0px;margin-left:4px;&quot;&gt;&lt;span style=&quot;background-color: initial;&quot;&gt;+ Creér Compte() :&amp;nbsp;&lt;/span&gt;&lt;br&gt;&lt;/p&gt;" style="verticalAlign=top;align=left;overflow=fill;html=1;whiteSpace=wrap;" parent="1" vertex="1">
          <mxGeometry x="334" y="320" width="160" height="90" as="geometry" />
        </mxCell>
        <mxCell id="OKO-UqqHdCmLFslAwH-V-3" value="&lt;p style=&quot;margin:0px;margin-top:4px;text-align:center;&quot;&gt;&lt;b&gt;Client&lt;/b&gt;&lt;/p&gt;&lt;hr size=&quot;1&quot; style=&quot;border-style:solid;&quot;&gt;&lt;p style=&quot;margin:0px;margin-left:4px;&quot;&gt;+ id: Type&lt;/p&gt;&lt;p style=&quot;margin:0px;margin-left:4px;&quot;&gt;+ token&lt;/p&gt;&lt;hr size=&quot;1&quot; style=&quot;border-style:solid;&quot;&gt;&lt;p style=&quot;margin:0px;margin-left:4px;&quot;&gt;+&amp;nbsp;&lt;span style=&quot;background-color: initial;&quot;&gt;&amp;nbsp;&lt;/span&gt;&lt;span style=&quot;background-color: initial;&quot;&gt;Authentifier(): Type&lt;/span&gt;&lt;/p&gt;" style="verticalAlign=top;align=left;overflow=fill;html=1;whiteSpace=wrap;" parent="1" vertex="1">
          <mxGeometry x="610" y="320" width="160" height="90" as="geometry" />
        </mxCell>
        <mxCell id="OKO-UqqHdCmLFslAwH-V-4" value="&lt;p style=&quot;margin:0px;margin-top:4px;text-align:center;&quot;&gt;&lt;b&gt;Admin&lt;/b&gt;&lt;/p&gt;&lt;hr size=&quot;1&quot; style=&quot;border-style:solid;&quot;&gt;&lt;p style=&quot;margin:0px;margin-left:4px;&quot;&gt;+ field: Type&lt;/p&gt;&lt;hr size=&quot;1&quot; style=&quot;border-style:solid;&quot;&gt;&lt;p style=&quot;margin:0px;margin-left:4px;&quot;&gt;+ method(): Type&lt;/p&gt;" style="verticalAlign=top;align=left;overflow=fill;html=1;whiteSpace=wrap;" parent="1" vertex="1">
          <mxGeometry x="60" y="320" width="160" height="90" as="geometry" />
        </mxCell>
        <mxCell id="OKO-UqqHdCmLFslAwH-V-6" value="" style="strokeWidth=2;html=1;shape=mxgraph.flowchart.annotation_2;align=left;labelPosition=right;pointerEvents=1;rotation=90;" parent="1" vertex="1">
          <mxGeometry x="375" y="14" width="65" height="541" as="geometry" />
        </mxCell>
        <mxCell id="OKO-UqqHdCmLFslAwH-V-13" value="&lt;p style=&quot;margin:0px;margin-top:4px;text-align:center;&quot;&gt;&lt;b&gt;Offre&lt;/b&gt;&lt;/p&gt;&lt;hr size=&quot;1&quot; style=&quot;border-style:solid;&quot;&gt;&lt;p style=&quot;margin:0px;margin-left:4px;&quot;&gt;+ categorie: String&lt;/p&gt;&lt;p style=&quot;margin:0px;margin-left:4px;&quot;&gt;+ tarif&lt;/p&gt;&lt;hr size=&quot;1&quot; style=&quot;border-style:solid;&quot;&gt;&lt;p style=&quot;margin:0px;margin-left:4px;&quot;&gt;+ method(): Type&lt;/p&gt;" style="verticalAlign=top;align=left;overflow=fill;html=1;whiteSpace=wrap;" parent="1" vertex="1">
          <mxGeometry x="338" y="474" width="160" height="90" as="geometry" />
        </mxCell>
        <mxCell id="OKO-UqqHdCmLFslAwH-V-14" value="&lt;p style=&quot;margin:0px;margin-top:4px;text-align:center;&quot;&gt;&lt;b&gt;Event&lt;/b&gt;&lt;/p&gt;&lt;hr size=&quot;1&quot; style=&quot;border-style:solid;&quot;&gt;&lt;p style=&quot;margin:0px;margin-left:4px;&quot;&gt;+ categorie: Type&lt;/p&gt;&lt;hr size=&quot;1&quot; style=&quot;border-style:solid;&quot;&gt;&lt;p style=&quot;margin:0px;margin-left:4px;&quot;&gt;+ method(): Type&lt;/p&gt;" style="verticalAlign=top;align=left;overflow=fill;html=1;whiteSpace=wrap;" parent="1" vertex="1">
          <mxGeometry x="340" y="630" width="160" height="90" as="geometry" />
        </mxCell>
        <mxCell id="OKO-UqqHdCmLFslAwH-V-16" value="" style="line;strokeWidth=2;html=1;rotation=-90;" parent="1" vertex="1">
          <mxGeometry x="388.75" y="298.75" width="37.5" height="10" as="geometry" />
        </mxCell>
        <mxCell id="OKO-UqqHdCmLFslAwH-V-18" value="" style="endArrow=none;html=1;edgeStyle=orthogonalEdgeStyle;rounded=0;entryX=0.5;entryY=0;entryDx=0;entryDy=0;" parent="1" target="OKO-UqqHdCmLFslAwH-V-14" edge="1">
          <mxGeometry relative="1" as="geometry">
            <mxPoint x="410" y="560" as="sourcePoint" />
            <mxPoint x="560" y="600" as="targetPoint" />
          </mxGeometry>
        </mxCell>
        <mxCell id="OKO-UqqHdCmLFslAwH-V-19" value="0..*" style="edgeLabel;resizable=0;html=1;align=left;verticalAlign=bottom;" parent="OKO-UqqHdCmLFslAwH-V-18" connectable="0" vertex="1">
          <mxGeometry x="-1" relative="1" as="geometry">
            <mxPoint x="3" y="22" as="offset" />
          </mxGeometry>
        </mxCell>
        <mxCell id="OKO-UqqHdCmLFslAwH-V-20" value="1..*" style="edgeLabel;resizable=0;html=1;align=right;verticalAlign=bottom;" parent="OKO-UqqHdCmLFslAwH-V-18" connectable="0" vertex="1">
          <mxGeometry x="1" relative="1" as="geometry">
            <mxPoint x="25" as="offset" />
          </mxGeometry>
        </mxCell>
        <mxCell id="OKO-UqqHdCmLFslAwH-V-21" value="" style="endArrow=none;html=1;edgeStyle=orthogonalEdgeStyle;rounded=0;entryX=0.429;entryY=1.03;entryDx=0;entryDy=0;entryPerimeter=0;" parent="1" target="OKO-UqqHdCmLFslAwH-V-3" edge="1">
          <mxGeometry relative="1" as="geometry">
            <mxPoint x="500" y="509.5" as="sourcePoint" />
            <mxPoint x="660" y="509.5" as="targetPoint" />
          </mxGeometry>
        </mxCell>
        <mxCell id="OKO-UqqHdCmLFslAwH-V-22" value="1..*" style="edgeLabel;resizable=0;html=1;align=left;verticalAlign=bottom;" parent="OKO-UqqHdCmLFslAwH-V-21" connectable="0" vertex="1">
          <mxGeometry x="-1" relative="1" as="geometry" />
        </mxCell>
        <mxCell id="OKO-UqqHdCmLFslAwH-V-23" value="0..*" style="edgeLabel;resizable=0;html=1;align=right;verticalAlign=bottom;" parent="OKO-UqqHdCmLFslAwH-V-21" connectable="0" vertex="1">
          <mxGeometry x="1" relative="1" as="geometry">
            <mxPoint x="-2" y="15" as="offset" />
          </mxGeometry>
        </mxCell>
        <mxCell id="OKO-UqqHdCmLFslAwH-V-24" value="&lt;b&gt;&lt;u&gt;Choisir&lt;/u&gt;&lt;/b&gt;" style="edgeLabel;resizable=0;html=1;align=right;verticalAlign=bottom;" parent="1" connectable="0" vertex="1">
          <mxGeometry x="625.0000408188627" y="507.0007081170303" as="geometry" />
        </mxCell>
        <mxCell id="OKO-UqqHdCmLFslAwH-V-25" value="&lt;p style=&quot;margin:0px;margin-top:4px;text-align:center;&quot;&gt;&lt;b&gt;Panier&lt;/b&gt;&lt;/p&gt;&lt;hr size=&quot;1&quot; style=&quot;border-style:solid;&quot;&gt;&lt;p style=&quot;margin:0px;margin-left:4px;&quot;&gt;+ Idoffre:&amp;nbsp;&lt;/p&gt;&lt;p style=&quot;margin:0px;margin-left:4px;&quot;&gt;+ IdClient&lt;/p&gt;&lt;p style=&quot;margin:0px;margin-left:4px;&quot;&gt;+ Quantite&lt;/p&gt;&lt;p style=&quot;margin:0px;margin-left:4px;&quot;&gt;+ Date validité&lt;/p&gt;&lt;hr size=&quot;1&quot; style=&quot;border-style:solid;&quot;&gt;&lt;p style=&quot;margin:0px;margin-left:4px;&quot;&gt;+ payer(): Type&lt;/p&gt;" style="verticalAlign=top;align=left;overflow=fill;html=1;whiteSpace=wrap;" parent="1" vertex="1">
          <mxGeometry x="590" y="580" width="160" height="120" as="geometry" />
        </mxCell>
        <mxCell id="OKO-UqqHdCmLFslAwH-V-26" value="&lt;p style=&quot;margin:0px;margin-top:4px;text-align:center;&quot;&gt;&lt;b&gt;Billet&lt;/b&gt;&lt;/p&gt;&lt;hr size=&quot;1&quot; style=&quot;border-style:solid;&quot;&gt;&lt;p style=&quot;margin:0px;margin-left:4px;&quot;&gt;+ Idoffre:&amp;nbsp;&lt;/p&gt;&lt;p style=&quot;margin:0px;margin-left:4px;&quot;&gt;+ IdClient&lt;/p&gt;&lt;p style=&quot;margin:0px;margin-left:4px;&quot;&gt;+ Quantite&lt;/p&gt;&lt;p style=&quot;margin:0px;margin-left:4px;&quot;&gt;+ DateValidté&lt;/p&gt;&lt;p style=&quot;margin:0px;margin-left:4px;&quot;&gt;+ Token Billet&lt;/p&gt;&lt;hr size=&quot;1&quot; style=&quot;border-style:solid;&quot;&gt;&lt;p style=&quot;margin:0px;margin-left:4px;&quot;&gt;+ payer(): Type&lt;/p&gt;" style="verticalAlign=top;align=left;overflow=fill;html=1;whiteSpace=wrap;" parent="1" vertex="1">
          <mxGeometry x="590" y="770" width="160" height="140" as="geometry" />
        </mxCell>
        <mxCell id="OKO-UqqHdCmLFslAwH-V-27" value="" style="endArrow=none;html=1;edgeStyle=orthogonalEdgeStyle;rounded=0;entryX=0.5;entryY=0;entryDx=0;entryDy=0;" parent="1" target="OKO-UqqHdCmLFslAwH-V-26" edge="1">
          <mxGeometry relative="1" as="geometry">
            <mxPoint x="669.5" y="690" as="sourcePoint" />
            <mxPoint x="670" y="760" as="targetPoint" />
          </mxGeometry>
        </mxCell>
        <mxCell id="OKO-UqqHdCmLFslAwH-V-28" value="1" style="edgeLabel;resizable=0;html=1;align=left;verticalAlign=bottom;" parent="OKO-UqqHdCmLFslAwH-V-27" connectable="0" vertex="1">
          <mxGeometry x="-1" relative="1" as="geometry">
            <mxPoint x="-14" y="17" as="offset" />
          </mxGeometry>
        </mxCell>
        <mxCell id="OKO-UqqHdCmLFslAwH-V-29" value="1..*" style="edgeLabel;resizable=0;html=1;align=right;verticalAlign=bottom;" parent="OKO-UqqHdCmLFslAwH-V-27" connectable="0" vertex="1">
          <mxGeometry x="1" relative="1" as="geometry">
            <mxPoint x="-3" y="-3" as="offset" />
          </mxGeometry>
        </mxCell>
        <mxCell id="OKO-UqqHdCmLFslAwH-V-30" value="&lt;b&gt;&lt;u&gt;Contient&lt;/u&gt;&lt;/b&gt;" style="edgeLabel;resizable=0;html=1;align=right;verticalAlign=bottom;" parent="1" connectable="0" vertex="1">
          <mxGeometry x="660.0000408188627" y="740.0007081170303" as="geometry" />
        </mxCell>
        <mxCell id="OKO-UqqHdCmLFslAwH-V-31" value="" style="endArrow=none;html=1;edgeStyle=orthogonalEdgeStyle;rounded=0;entryX=0.429;entryY=1.03;entryDx=0;entryDy=0;entryPerimeter=0;exitX=0.546;exitY=0.026;exitDx=0;exitDy=0;exitPerimeter=0;" parent="1" source="OKO-UqqHdCmLFslAwH-V-13" edge="1">
          <mxGeometry relative="1" as="geometry">
            <mxPoint x="246.75" y="506.5" as="sourcePoint" />
            <mxPoint x="425.75" y="410" as="targetPoint" />
          </mxGeometry>
        </mxCell>
        <mxCell id="OKO-UqqHdCmLFslAwH-V-32" value="1..*" style="edgeLabel;resizable=0;html=1;align=left;verticalAlign=bottom;" parent="OKO-UqqHdCmLFslAwH-V-31" connectable="0" vertex="1">
          <mxGeometry x="-1" relative="1" as="geometry" />
        </mxCell>
        <mxCell id="OKO-UqqHdCmLFslAwH-V-33" value="0..*" style="edgeLabel;resizable=0;html=1;align=right;verticalAlign=bottom;" parent="OKO-UqqHdCmLFslAwH-V-31" connectable="0" vertex="1">
          <mxGeometry x="1" relative="1" as="geometry">
            <mxPoint x="-2" y="15" as="offset" />
          </mxGeometry>
        </mxCell>
        <mxCell id="OKO-UqqHdCmLFslAwH-V-34" value="&lt;b&gt;&lt;u&gt;Choisir&lt;/u&gt;&lt;/b&gt;" style="edgeLabel;resizable=0;html=1;align=right;verticalAlign=bottom;" parent="1" connectable="0" vertex="1">
          <mxGeometry x="418.00004081886266" y="450.0007081170303" as="geometry" />
        </mxCell>
        <mxCell id="OKO-UqqHdCmLFslAwH-V-35" value="" style="endArrow=none;html=1;rounded=0;entryX=0.375;entryY=0;entryDx=0;entryDy=0;entryPerimeter=0;" parent="1" target="OKO-UqqHdCmLFslAwH-V-25" edge="1">
          <mxGeometry relative="1" as="geometry">
            <mxPoint x="650" y="510" as="sourcePoint" />
            <mxPoint x="690" y="520" as="targetPoint" />
          </mxGeometry>
        </mxCell>
        <mxCell id="OKO-UqqHdCmLFslAwH-V-38" value="" style="endArrow=none;html=1;edgeStyle=orthogonalEdgeStyle;rounded=0;entryX=0.429;entryY=1.03;entryDx=0;entryDy=0;entryPerimeter=0;" parent="1" edge="1">
          <mxGeometry relative="1" as="geometry">
            <mxPoint x="330" y="520" as="sourcePoint" />
            <mxPoint x="149" y="410" as="targetPoint" />
          </mxGeometry>
        </mxCell>
        <mxCell id="OKO-UqqHdCmLFslAwH-V-39" value="1..*" style="edgeLabel;resizable=0;html=1;align=left;verticalAlign=bottom;" parent="OKO-UqqHdCmLFslAwH-V-38" connectable="0" vertex="1">
          <mxGeometry x="-1" relative="1" as="geometry">
            <mxPoint x="-21" y="-1" as="offset" />
          </mxGeometry>
        </mxCell>
        <mxCell id="OKO-UqqHdCmLFslAwH-V-40" value="1" style="edgeLabel;resizable=0;html=1;align=right;verticalAlign=bottom;" parent="OKO-UqqHdCmLFslAwH-V-38" connectable="0" vertex="1">
          <mxGeometry x="1" relative="1" as="geometry">
            <mxPoint x="-3" y="17" as="offset" />
          </mxGeometry>
        </mxCell>
        <mxCell id="OKO-UqqHdCmLFslAwH-V-41" value="&lt;b&gt;&lt;u&gt;Gérer&lt;/u&gt;&lt;/b&gt;" style="edgeLabel;resizable=0;html=1;align=right;verticalAlign=bottom;" parent="1" connectable="0" vertex="1">
          <mxGeometry x="200.00004081886266" y="474.0007081170303" as="geometry" />
        </mxCell>
        <mxCell id="OKO-UqqHdCmLFslAwH-V-42" value="" style="endArrow=none;html=1;edgeStyle=orthogonalEdgeStyle;rounded=0;entryX=0.429;entryY=1.03;entryDx=0;entryDy=0;entryPerimeter=0;exitX=0;exitY=0.5;exitDx=0;exitDy=0;" parent="1" source="OKO-UqqHdCmLFslAwH-V-14" edge="1">
          <mxGeometry relative="1" as="geometry">
            <mxPoint x="261" y="520" as="sourcePoint" />
            <mxPoint x="80" y="410" as="targetPoint" />
          </mxGeometry>
        </mxCell>
        <mxCell id="OKO-UqqHdCmLFslAwH-V-43" value="1..*" style="edgeLabel;resizable=0;html=1;align=left;verticalAlign=bottom;" parent="OKO-UqqHdCmLFslAwH-V-42" connectable="0" vertex="1">
          <mxGeometry x="-1" relative="1" as="geometry">
            <mxPoint x="-21" y="-1" as="offset" />
          </mxGeometry>
        </mxCell>
        <mxCell id="OKO-UqqHdCmLFslAwH-V-44" value="1" style="edgeLabel;resizable=0;html=1;align=right;verticalAlign=bottom;" parent="OKO-UqqHdCmLFslAwH-V-42" connectable="0" vertex="1">
          <mxGeometry x="1" relative="1" as="geometry">
            <mxPoint x="-3" y="17" as="offset" />
          </mxGeometry>
        </mxCell>
        <mxCell id="OKO-UqqHdCmLFslAwH-V-45" value="&lt;b&gt;&lt;u&gt;Gérer&lt;/u&gt;&lt;/b&gt;" style="edgeLabel;resizable=0;html=1;align=right;verticalAlign=bottom;" parent="1" connectable="0" vertex="1">
          <mxGeometry x="120.00004081886266" y="564.0007081170303" as="geometry" />
        </mxCell>
      </root>
    </mxGraphModel>
  </diagram>
</mxfile>
